<svg xmlns="http://www.w3.org/2000/svg" viewBox="0 0 720 520">
  <defs>
    <linearGradient id="bg" x1="0" x2="1" y1="0" y2="1">
      <stop offset="0" stop-color="#171c20"/>
      <stop offset=".58" stop-color="#080a0b"/>
      <stop offset="1" stop-color="#1f2b22"/>
    </linearGradient>
    <filter id="glow"><feGaussianBlur stdDeviation="10" result="b"/><feMerge><feMergeNode in="b"/><feMergeNode in="SourceGraphic"/></feMerge></filter>
  </defs>
  <rect width="720" height="520" fill="#050607"/>
  <path d="M0 0h720v520H0z" fill="url(#bg)"/>
  <g opacity=".18" stroke="#f4eee2">
    <path d="M0 52h720M0 104h720M0 156h720M0 208h720M0 260h720M0 312h720M0 364h720M0 416h720M0 468h720"/>
    <path d="M72 0v520M144 0v520M216 0v520M288 0v520M360 0v520M432 0v520M504 0v520M576 0v520M648 0v520"/>
  </g>
  <rect x="216" y="54" width="288" height="410" rx="24" fill="#101417" stroke="#c7ff64" stroke-width="3"/>
  <rect x="240" y="82" width="240" height="62" rx="10" fill="#171c20" stroke="#f4eee2" opacity=".6"/>
  <rect x="254" y="176" width="212" height="214" rx="18" fill="#0b0f12" stroke="#f4eee2" opacity=".72"/>
  <path d="M286 344c36-74 86-111 148-111 20 0 33 5 44 12v95H286z" fill="#c7ff64" opacity=".18"/>
  <circle cx="360" cy="254" r="44" fill="none" stroke="#7bbcff" stroke-width="5" filter="url(#glow)"/>
  <rect x="282" y="416" width="156" height="12" rx="6" fill="#c7ff64"/>
</svg>
